<?xml version="1.0" encoding="UTF-8" standalone="no"?>
<svg xmlns="http://www.w3.org/2000/svg" xmlns:xlink="http://www.w3.org/1999/xlink" width="354" height="452" viewBox="0 0 354 452">
<rect width="354" height="452" fill="#FFFFFF"/>
<g fill="none" stroke="#666666" stroke-width="1.4" stroke-linejoin="round" stroke-linecap="round">
<path d="M 193.8,41.3 L 193.8,65.8" stroke="#636EFA"/>
<path d="M 193.8,41.3 L 193.8,42.1 A 8.5,8.5 0 0 1 185.4,50.5 L 185.4,50.5 A 8.5,8.5 0 0 0 176.9,59.0 L 176.9,100.3" stroke="#636EFA"/>
<path d="M 193.8,41.3 L 193.8,42.1 A 8.5,8.5 0 0 1 185.4,50.5 L 168.5,50.5 A 8.5,8.5 0 0 0 160.0,59.0 L 160.0,134.7" stroke="#636EFA"/>
<path d="M 193.8,41.3 L 193.8,42.1 A 8.5,8.5 0 0 1 185.4,50.5 L 151.6,50.5 A 8.5,8.5 0 0 0 143.1,59.0 L 143.1,169.2" stroke="#636EFA"/>
<path d="M 193.8,41.3 L 193.8,42.1 A 8.5,8.5 0 0 1 185.4,50.5 L 134.7,50.5 A 8.5,8.5 0 0 0 126.2,59.0 L 126.2,203.6" stroke="#636EFA"/>
<path d="M 193.8,41.3 L 193.8,42.1 A 8.5,8.5 0 0 1 185.4,50.5 L 117.8,50.5 A 8.5,8.5 0 0 0 109.3,59.0 L 109.3,238.1" stroke="#636EFA"/>
<path d="M 193.8,41.3 L 193.8,42.1 A 8.5,8.5 0 0 1 185.4,50.5 L 100.9,50.5 A 8.5,8.5 0 0 0 92.4,59.0 L 92.4,272.5" stroke="#636EFA"/>
<path d="M 193.8,76.5 L 193.8,307.7" stroke="#636EFA"/>
<path d="M 176.9,111.0 L 176.9,359.0 A 8.5,8.5 0 0 0 185.4,367.4 L 185.4,367.4 A 8.5,8.5 0 0 1 193.8,375.9 L 193.8,376.6" stroke="#636EFA"/>
<path d="M 160.0,145.4 L 160.0,290.1 A 8.5,8.5 0 0 0 168.5,298.5 L 185.4,298.5 A 8.5,8.5 0 0 1 193.8,307.0 L 193.8,307.7" stroke="#636EFA"/>
<path d="M 160.0,145.4 A 8.4,8.4 0 0 1 151.6,153.9 L 84.0,153.9 A 8.5,8.5 0 0 0 75.5,162.3 L 75.5,359.0 A 8.5,8.5 0 0 0 84.0,367.4 L 185.4,367.4 A 8.5,8.5 0 0 1 193.8,375.9 L 193.8,376.6" stroke="#636EFA"/>
<path d="M 143.1,179.9 L 143.1,290.1 A 8.5,8.5 0 0 0 151.6,298.5 L 185.4,298.5 A 8.5,8.5 0 0 1 193.8,307.0 L 193.8,307.7" stroke="#636EFA"/>
<path d="M 143.1,179.9 A 8.4,8.4 0 0 1 134.7,188.3 L 67.1,188.3 A 8.5,8.5 0 0 0 58.6,196.8 L 58.6,359.0 A 8.5,8.5 0 0 0 67.1,367.4 L 185.4,367.4 A 8.5,8.5 0 0 1 193.8,375.9 L 193.8,376.6" stroke="#636EFA"/>
<path d="M 126.2,214.3 L 126.2,290.1 A 8.5,8.5 0 0 0 134.7,298.5 L 185.4,298.5 A 8.5,8.5 0 0 1 193.8,307.0 L 193.8,307.7" stroke="#636EFA"/>
<path d="M 126.2,214.3 A 8.4,8.4 0 0 1 117.8,222.8 L 50.2,222.8 A 8.5,8.5 0 0 0 41.7,231.2 L 41.7,359.0 A 8.5,8.5 0 0 0 50.2,367.4 L 185.4,367.4 A 8.5,8.5 0 0 1 193.8,375.9 L 193.8,376.6" stroke="#636EFA"/>
<path d="M 109.3,248.8 L 109.3,290.1 A 8.5,8.5 0 0 0 117.8,298.5 L 185.4,298.5 A 8.5,8.5 0 0 1 193.8,307.0 L 193.8,307.7" stroke="#636EFA"/>
<path d="M 109.3,248.8 L 109.3,248.8 A 8.5,8.5 0 0 1 100.9,257.2 L 33.3,257.2 A 8.5,8.5 0 0 0 24.8,265.7 L 24.8,359.0 A 8.5,8.5 0 0 0 33.3,367.4 L 185.4,367.4 A 8.5,8.5 0 0 1 193.8,375.9 L 193.8,376.6" stroke="#636EFA"/>
<path d="M 92.4,283.2 L 92.4,283.2 A 8.5,8.5 0 0 0 100.9,291.7 L 185.4,291.7 A 8.5,8.5 0 0 1 193.8,300.1 L 193.8,307.7" stroke="#636EFA"/>
<path d="M 92.4,283.2 L 92.4,283.2 A 8.5,8.5 0 0 0 100.9,291.7 L 151.6,291.7 A 8.5,8.5 0 0 1 160.0,300.1 L 160.0,359.0 A 8.5,8.5 0 0 0 168.5,367.4 L 185.4,367.4 A 8.5,8.5 0 0 1 193.8,375.9 L 193.8,376.6" stroke="#636EFA"/>
<path d="M 193.8,316.9 L 193.8,341.4" stroke="#636EFA"/>
<path d="M 193.8,352.1 L 193.8,376.6" stroke="#636EFA"/>
<path d="M 193.8,385.8 L 193.8,410.3" stroke="#636EFA"/>
</g>
<g><title>given</title>
<polygon points="188.5,32.1 199.2,32.1 193.8,41.3" fill="#FFFFFF" stroke="#636EFA" stroke-width="1.5" stroke-linejoin="round"/>
<text x="206.3" y="41.4" font-family="Arial" font-size="13" fill="#7A7A7A" text-anchor="start">given</text></g>
<g><title>fabfos_data::genomes</title>
<circle cx="193.8" cy="71.2" r="5.3" fill="#FFFFFF" stroke="#636EFA" stroke-width="1.5"/>
<text x="206.3" y="65.7" font-family="Arial" font-size="6.5" fill="#8A8A8A" text-anchor="start">fabfos_data</text>
<text x="206.3" y="75.9" font-family="Arial" font-size="13" fill="#111111" text-anchor="start">genomes</text></g>
<g><title>bench::study_extractions</title>
<circle cx="176.9" cy="105.6" r="5.3" fill="#FFFFFF" stroke="#636EFA" stroke-width="1.5"/>
<text x="206.3" y="100.2" font-family="Arial" font-size="6.5" fill="#8A8A8A" text-anchor="start">bench</text>
<text x="206.3" y="110.3" font-family="Arial" font-size="13" fill="#111111" text-anchor="start">study_extractions</text></g>
<g><title>fabfos_data::metanetx</title>
<circle cx="160.0" cy="140.1" r="5.3" fill="#FFFFFF" stroke="#636EFA" stroke-width="1.5"/>
<text x="206.3" y="134.6" font-family="Arial" font-size="6.5" fill="#8A8A8A" text-anchor="start">fabfos_data</text>
<text x="206.3" y="144.8" font-family="Arial" font-size="13" fill="#111111" text-anchor="start">metanetx</text></g>
<g><title>ref::atom_pairs</title>
<circle cx="143.1" cy="174.5" r="5.3" fill="#FFFFFF" stroke="#636EFA" stroke-width="1.5"/>
<text x="206.3" y="169.1" font-family="Arial" font-size="6.5" fill="#8A8A8A" text-anchor="start">ref</text>
<text x="206.3" y="179.2" font-family="Arial" font-size="13" fill="#111111" text-anchor="start">atom_pairs</text></g>
<g><title>ref::direction_ratios</title>
<circle cx="126.2" cy="209.0" r="5.3" fill="#FFFFFF" stroke="#636EFA" stroke-width="1.5"/>
<text x="206.3" y="203.5" font-family="Arial" font-size="6.5" fill="#8A8A8A" text-anchor="start">ref</text>
<text x="206.3" y="213.7" font-family="Arial" font-size="13" fill="#111111" text-anchor="start">direction_ratios</text></g>
<g><title>ref::metabolism_vocab</title>
<circle cx="109.3" cy="243.4" r="5.3" fill="#FFFFFF" stroke="#636EFA" stroke-width="1.5"/>
<text x="206.3" y="238.0" font-family="Arial" font-size="6.5" fill="#8A8A8A" text-anchor="start">ref</text>
<text x="206.3" y="248.1" font-family="Arial" font-size="13" fill="#111111" text-anchor="start">metabolism_vocab</text></g>
<g><title>ref::mnxr_lookup</title>
<circle cx="92.4" cy="277.9" r="5.3" fill="#FFFFFF" stroke="#636EFA" stroke-width="1.5"/>
<text x="206.3" y="272.4" font-family="Arial" font-size="6.5" fill="#8A8A8A" text-anchor="start">ref</text>
<text x="206.3" y="282.6" font-family="Arial" font-size="13" fill="#111111" text-anchor="start">mnxr_lookup</text></g>
<g><title>1 host_gpr_gem</title>
<polygon points="188.5,307.7 199.2,307.7 193.8,316.9" fill="#FFFFFF" stroke="#636EFA" stroke-width="1.5" stroke-linejoin="round"/>
<text x="206.3" y="317.0" font-family="Arial" font-size="13" fill="#7A7A7A" text-anchor="start">host_gpr_gem</text></g>
<g><title>ref::gpr_table_gem</title>
<circle cx="193.8" cy="346.8" r="5.3" fill="#636EFA" stroke="#2B2B2B" stroke-width="3.0"/>
<text x="206.3" y="341.3" font-family="Arial" font-size="6.5" fill="#8A8A8A" text-anchor="start">ref</text>
<text x="206.3" y="351.5" font-family="Arial" font-size="13" fill="#111111" text-anchor="start">gpr_table_gem</text></g>
<g><title>2 study_tier</title>
<polygon points="188.5,376.6 199.2,376.6 193.8,385.8" fill="#FFFFFF" stroke="#636EFA" stroke-width="1.5" stroke-linejoin="round"/>
<text x="206.3" y="385.9" font-family="Arial" font-size="13" fill="#7A7A7A" text-anchor="start">study_tier</text></g>
<g><title>bench::study_benchmark</title>
<circle cx="193.8" cy="415.7" r="5.3" fill="#636EFA" stroke="#2B2B2B" stroke-width="3.0"/>
<text x="206.3" y="410.2" font-family="Arial" font-size="6.5" fill="#8A8A8A" text-anchor="start">bench</text>
<text x="206.3" y="420.4" font-family="Arial" font-size="13" fill="#111111" text-anchor="start">study_benchmark</text></g>
</svg>
