<?xml version="1.0" encoding="UTF-8" standalone="no"?>
<svg xmlns="http://www.w3.org/2000/svg" xmlns:xlink="http://www.w3.org/1999/xlink" width="225" height="211" viewBox="0 0 225 211">
<rect width="225" height="211" fill="#FFFFFF"/>
<g fill="none" stroke="#666666" stroke-width="1.4" stroke-linejoin="round" stroke-linecap="round">
<path d="M 41.7,41.3 L 41.7,65.8" stroke="#636EFA"/>
<path d="M 41.7,41.3 L 41.7,42.1 A 8.5,8.5 0 0 1 33.3,50.5 A 8.5,8.5 0 0 0 24.8,59.0 L 24.8,100.3" stroke="#636EFA"/>
<path d="M 41.7,76.5 L 41.7,135.5" stroke="#636EFA"/>
<path d="M 24.8,111.0 L 24.8,117.8 A 8.5,8.5 0 0 0 33.3,126.3 A 8.5,8.5 0 0 1 41.7,134.7 L 41.7,135.5" stroke="#636EFA"/>
<path d="M 41.7,144.7 L 41.7,169.2" stroke="#636EFA"/>
</g>
<g><title>given</title>
<polygon points="36.4,32.1 47.1,32.1 41.7,41.3" fill="#FFFFFF" stroke="#636EFA" stroke-width="1.5" stroke-linejoin="round"/>
<text x="54.2" y="41.4" font-family="Arial" font-size="13" fill="#7A7A7A" text-anchor="start">given</text></g>
<g><title>interm::direction_annotation</title>
<circle cx="41.7" cy="71.2" r="5.3" fill="#FFFFFF" stroke="#636EFA" stroke-width="1.5"/>
<text x="54.2" y="65.7" font-family="Arial" font-size="6.5" fill="#8A8A8A" text-anchor="start">interm</text>
<text x="54.2" y="75.9" font-family="Arial" font-size="13" fill="#111111" text-anchor="start">direction_annotation</text></g>
<g><title>ref::metabolism_vocab</title>
<circle cx="24.8" cy="105.6" r="5.3" fill="#FFFFFF" stroke="#636EFA" stroke-width="1.5"/>
<text x="54.2" y="100.2" font-family="Arial" font-size="6.5" fill="#8A8A8A" text-anchor="start">ref</text>
<text x="54.2" y="110.3" font-family="Arial" font-size="13" fill="#111111" text-anchor="start">metabolism_vocab</text></g>
<g><title>1 direction_bake</title>
<polygon points="36.4,135.5 47.1,135.5 41.7,144.7" fill="#FFFFFF" stroke="#636EFA" stroke-width="1.5" stroke-linejoin="round"/>
<text x="54.2" y="144.8" font-family="Arial" font-size="13" fill="#7A7A7A" text-anchor="start">direction_bake</text></g>
<g><title>ref::direction_ratios</title>
<circle cx="41.7" cy="174.5" r="5.3" fill="#636EFA" stroke="#2B2B2B" stroke-width="3.0"/>
<text x="54.2" y="169.1" font-family="Arial" font-size="6.5" fill="#8A8A8A" text-anchor="start">ref</text>
<text x="54.2" y="179.2" font-family="Arial" font-size="13" fill="#111111" text-anchor="start">direction_ratios</text></g>
</svg>
