<?xml version="1.0" encoding="UTF-8" standalone="no"?>
<svg xmlns="http://www.w3.org/2000/svg" xmlns:xlink="http://www.w3.org/1999/xlink" width="279" height="349" viewBox="0 0 279 349">
<rect width="279" height="349" fill="#FFFFFF"/>
<g fill="none" stroke="#666666" stroke-width="1.4" stroke-linejoin="round" stroke-linecap="round">
<path d="M 126.2,41.3 L 126.2,65.8" stroke="#636EFA"/>
<path d="M 126.2,41.3 L 126.2,42.1 A 8.4,8.4 0 0 1 117.8,50.5 A 8.4,8.4 0 0 0 109.3,59.0 L 109.3,83.4 A 8.4,8.4 0 0 0 117.8,91.8 A 8.4,8.4 0 0 1 126.2,100.3 L 126.2,100.3" stroke="#636EFA"/>
<path d="M 126.2,41.3 L 126.2,42.1 A 8.5,8.5 0 0 1 117.8,50.5 L 100.9,50.5 A 8.5,8.5 0 0 0 92.4,59.0 L 92.4,134.7" stroke="#636EFA"/>
<path d="M 126.2,41.3 L 126.2,42.1 A 8.5,8.5 0 0 1 117.8,50.5 L 84.0,50.5 A 8.5,8.5 0 0 0 75.5,59.0 L 75.5,169.2" stroke="#636EFA"/>
<path d="M 126.2,41.3 L 126.2,42.1 A 8.5,8.5 0 0 1 117.8,50.5 L 67.1,50.5 A 8.5,8.5 0 0 0 58.6,59.0 L 58.6,203.6" stroke="#636EFA"/>
<path d="M 126.2,41.3 L 126.2,42.1 A 8.5,8.5 0 0 1 117.8,50.5 L 50.2,50.5 A 8.5,8.5 0 0 0 41.7,59.0 L 41.7,238.1" stroke="#636EFA"/>
<path d="M 126.2,76.5 L 126.2,100.3" stroke="#636EFA"/>
<path d="M 126.2,76.5 L 126.2,76.5 A 8.4,8.4 0 0 1 117.8,85.0 A 8.4,8.4 0 0 0 109.3,93.4 L 109.3,117.8 A 8.5,8.5 0 0 1 100.9,126.3 L 100.9,126.3 A 8.4,8.4 0 0 0 92.4,134.7 L 92.4,134.7" stroke="#636EFA"/>
<path d="M 126.2,76.5 A 8.5,8.5 0 0 1 117.8,85.0 L 33.3,85.0 A 8.5,8.5 0 0 0 24.8,93.4 L 24.8,255.6 A 8.5,8.5 0 0 0 33.3,264.1 L 117.8,264.1 A 8.5,8.5 0 0 1 126.2,272.5 L 126.2,273.3" stroke="#636EFA"/>
<path d="M 126.2,111.0 L 126.2,273.3" stroke="#636EFA"/>
<path d="M 92.4,145.4 L 92.4,255.6 A 8.5,8.5 0 0 0 100.9,264.1 L 117.8,264.1 A 8.5,8.5 0 0 1 126.2,272.5 L 126.2,273.3" stroke="#636EFA"/>
<path d="M 75.5,179.9 L 75.5,255.6 A 8.5,8.5 0 0 0 84.0,264.1 L 117.8,264.1 A 8.5,8.5 0 0 1 126.2,272.5 L 126.2,273.3" stroke="#636EFA"/>
<path d="M 58.6,214.3 L 58.6,255.6 A 8.5,8.5 0 0 0 67.1,264.1 L 117.8,264.1 A 8.5,8.5 0 0 1 126.2,272.5 L 126.2,273.3" stroke="#636EFA"/>
<path d="M 41.7,248.8 L 41.7,255.6 A 8.5,8.5 0 0 0 50.2,264.1 L 117.8,264.1 A 8.5,8.5 0 0 1 126.2,272.5 L 126.2,273.3" stroke="#636EFA"/>
<path d="M 126.2,282.5 L 126.2,307.0" stroke="#636EFA"/>
</g>
<g><title>given</title>
<polygon points="120.9,32.1 131.6,32.1 126.2,41.3" fill="#FFFFFF" stroke="#636EFA" stroke-width="1.5" stroke-linejoin="round"/>
<text x="138.7" y="41.4" font-family="Arial" font-size="13" fill="#7A7A7A" text-anchor="start">given</text></g>
<g><title>fabfos::experiment</title>
<circle cx="126.2" cy="71.2" r="5.3" fill="#FFFFFF" stroke="#636EFA" stroke-width="1.5"/>
<text x="138.7" y="65.7" font-family="Arial" font-size="6.5" fill="#8A8A8A" text-anchor="start">fabfos</text>
<text x="138.7" y="75.9" font-family="Arial" font-size="13" fill="#111111" text-anchor="start">experiment</text></g>
<g><title>annotation::gpr_table</title>
<circle cx="126.2" cy="105.6" r="5.3" fill="#FFFFFF" stroke="#636EFA" stroke-width="1.5"/>
<text x="138.7" y="100.2" font-family="Arial" font-size="6.5" fill="#8A8A8A" text-anchor="start">annotation</text>
<text x="138.7" y="110.3" font-family="Arial" font-size="13" fill="#111111" text-anchor="start">gpr_table</text></g>
<g><title>ecspr::conditions</title>
<circle cx="92.4" cy="140.1" r="5.3" fill="#FFFFFF" stroke="#636EFA" stroke-width="1.5"/>
<text x="138.7" y="134.6" font-family="Arial" font-size="6.5" fill="#8A8A8A" text-anchor="start">ecspr</text>
<text x="138.7" y="144.8" font-family="Arial" font-size="13" fill="#111111" text-anchor="start">conditions</text></g>
<g><title>ecspr::atom_pairs</title>
<circle cx="75.5" cy="174.5" r="5.3" fill="#FFFFFF" stroke="#636EFA" stroke-width="1.5"/>
<text x="138.7" y="169.1" font-family="Arial" font-size="6.5" fill="#8A8A8A" text-anchor="start">ecspr</text>
<text x="138.7" y="179.2" font-family="Arial" font-size="13" fill="#111111" text-anchor="start">atom_pairs</text></g>
<g><title>ecspr::direction_ratios</title>
<circle cx="58.6" cy="209.0" r="5.3" fill="#FFFFFF" stroke="#636EFA" stroke-width="1.5"/>
<text x="138.7" y="203.5" font-family="Arial" font-size="6.5" fill="#8A8A8A" text-anchor="start">ecspr</text>
<text x="138.7" y="213.7" font-family="Arial" font-size="13" fill="#111111" text-anchor="start">direction_ratios</text></g>
<g><title>ecspr::metabolite_names</title>
<circle cx="41.7" cy="243.4" r="5.3" fill="#FFFFFF" stroke="#636EFA" stroke-width="1.5"/>
<text x="138.7" y="238.0" font-family="Arial" font-size="6.5" fill="#8A8A8A" text-anchor="start">ecspr</text>
<text x="138.7" y="248.1" font-family="Arial" font-size="13" fill="#111111" text-anchor="start">metabolite_names</text></g>
<g><title>1 ecspr_measure</title>
<polygon points="120.9,273.3 131.6,273.3 126.2,282.5" fill="#FFFFFF" stroke="#636EFA" stroke-width="1.5" stroke-linejoin="round"/>
<text x="138.7" y="282.6" font-family="Arial" font-size="13" fill="#7A7A7A" text-anchor="start">ecspr_measure</text></g>
<g><title>ecspr::results</title>
<circle cx="126.2" cy="312.3" r="5.3" fill="#636EFA" stroke="#2B2B2B" stroke-width="3.0"/>
<text x="138.7" y="306.9" font-family="Arial" font-size="6.5" fill="#8A8A8A" text-anchor="start">ecspr</text>
<text x="138.7" y="317.0" font-family="Arial" font-size="13" fill="#111111" text-anchor="start">results</text></g>
</svg>
